<svg xmlns="http://www.w3.org/2000/svg" version="1.1" xmlns:xlink="http://www.w3.org/1999/xlink" width="25" height="25" x="0" y="0" viewBox="0 0 53 53" style="enable-background:new 0 0 512 512" xml:space="preserve" class=""><g><path d="m22.935 10.018-8.93-1.92c-1.39-.29-2.8.38-3.44 1.63-.99 1.93-1.74 4.09-2.24 6.4-1.158 5.45-.905 14.146 4.11 16.33l-2.42 11.31c-1.93.35-4.6 2.17-5.5 2.81a.97.97 0 0 0-.39 1.01c.08.39.38.69.77.78l9.88 2.11c.07.02.14.02.21.02a1 1 0 0 0 .81-.41c.24-.32.26-.75.06-1.09-.56-.95-2.27-3.72-3.89-4.82l2.42-11.3c.02 0 .03.01.05.01 4.32 0 8.74-5.51 10.39-13.23.49-2.31.69-4.59.58-6.76a3.117 3.117 0 0 0-2.47-2.88zm.3 6.98h-13.03c.03-.15.05-.3.08-.45.46-2.14 1.15-4.13 2.06-5.91.19-.38.58-.6 1-.6.08 0 .16 0 .24.02l8.93 1.91c.5.11.87.53.89 1.03.07 1.3 0 2.64-.17 4zM48.485 46.578c-.89-.64-3.57-2.45-5.5-2.81l-2.42-11.31c6.13-2.67 5.707-15.25 1.87-22.73a3.134 3.134 0 0 0-3.43-1.63l-8.94 1.92c-1.38.29-2.4 1.48-2.47 2.88-.466 9.198 4.703 19.99 10.97 19.99.02 0 .03-.01.05-.01l2.42 11.3c-1.62 1.1-3.33 3.87-3.89 4.82a1.004 1.004 0 0 0 .87 1.5c.07 0 .14 0 .21-.02l9.88-2.11c.39-.09.69-.39.77-.78a.977.977 0 0 0-.39-1.01zm-18.17-26.57c-.53-2.297-.849-4.435-.72-7.01.02-.5.39-.92.89-1.03l8.93-1.91c.08-.02.16-.02.24-.02.42 0 .81.22 1 .6 1.359 2.658 2.31 5.98 2.55 9.37zM21.722 7.715a1 1 0 0 0 1.625-1.166L21.75 4.324a1 1 0 1 0-1.625 1.166zM26.5 2.502a1 1 0 0 0-1 1V6.26a1 1 0 0 0 2 0V3.502a1 1 0 0 0-1-1zM31.279 7.715l1.596-2.225a1 1 0 0 0-1.625-1.166L29.654 6.55a1 1 0 0 0 1.625 1.166z" fill="#000000" opacity="1" data-original="#000000"></path></g></svg>