<svg xmlns="http://www.w3.org/2000/svg" version="1.1" xmlns:xlink="http://www.w3.org/1999/xlink" width="25" height="25" x="0" y="0" viewBox="0 0 512.01 512.01" style="enable-background:new 0 0 512 512" xml:space="preserve" class=""><g><path d="M502.005 70.295H396.564C347.359 4.789 258.212-19.056 181.97 16.416c-25.954 12.075-48.923 30.447-66.523 53.879H10.005c-5.523 0-10 4.477-10 10v110.449c0 5.522 4.477 10 10 10h10.082v20.164H10.005c-5.523 0-10 4.478-10 10v40.163c0 5.523 4.477 10 10 10h10.082v170.775H10.005c-5.523 0-10 4.478-10 10v40.163c0 5.522 4.477 10 10 10h492c5.522 0 10-4.478 10-10v-40.163c0-5.522-4.478-10-10-10h-10.082V281.072h10.082c5.522 0 10-4.477 10-10v-40.163c0-5.522-4.478-10-10-10h-10.082v-20.164h10.082c5.522 0 10-4.478 10-10V80.296c0-5.523-4.478-10.001-10-10.001zm-482 20h100.533c3.25 0 6.298-1.58 8.172-4.235 19.146-27.142 46.222-47.105 76.855-57.623C271.243 5.887 343.589 29.766 383.3 86.06c3.17 4.492 8.076 4.21 8.176 4.235h100.529v20.164h-116.17l-9.011-12.774c-25.403-36.012-66.831-57.512-110.819-57.512s-85.416 21.5-110.819 57.513l-9.01 12.773H20.005zm472 401.715h-472v-20.163h472zM321.311 321.235v130.612h-55.306V321.235zm-75.306 130.612h-55.307V321.235h55.307zm225.918 0H341.311V311.235c0-5.522-4.478-10-10-10H180.698c-5.523 0-10 4.478-10 10v140.612H40.087V281.072h431.836zm20.082-190.775h-472v-20.163h472zm-20.082-40.164H40.087v-20.164h431.836zM20.005 180.744v-50.285H141.36c3.25 0 6.298-1.58 8.172-4.236l11.998-17.009c21.661-30.708 56.98-49.041 94.476-49.041s72.815 18.333 94.476 49.041l11.999 17.01a10.004 10.004 0 0 0 8.172 4.235h121.353v50.285H20.005z" fill="#000000" opacity="1" data-original="#000000"></path><path d="M70.25 431.684h70.285c5.522 0 10-4.477 10-10V311.235c0-5.522-4.478-10-10-10H70.25c-5.522 0-10 4.478-10 10v110.449c0 5.522 4.478 10 10 10zm10-110.449h50.285v90.449H80.25zM371.475 431.684h70.285c5.522 0 10-4.477 10-10V311.235c0-5.522-4.478-10-10-10h-70.285c-5.522 0-10 4.478-10 10v110.449c0 5.522 4.477 10 10 10zm10-110.449h50.285v90.449h-50.285zM256.005 80.336c-22.123 0-40.122 17.999-40.122 40.123 0 22.123 17.999 40.122 40.122 40.122s40.122-17.999 40.122-40.122c0-22.124-17.999-40.123-40.122-40.123zm0 60.245c-11.096 0-20.122-9.026-20.122-20.122s9.026-20.123 20.122-20.123 20.122 9.027 20.122 20.123-9.026 20.122-20.122 20.122z" fill="#000000" opacity="1" data-original="#000000"></path></g></svg>