<svg xmlns="http://www.w3.org/2000/svg" version="1.1" xmlns:xlink="http://www.w3.org/1999/xlink" width="25" height="25" x="0" y="0" viewBox="0 0 407.589 367.398" style="enable-background:new 0 0 512 512" xml:space="preserve" class=""><g><path d="M127.39 343.064h4.143v-5.333h-4.143v-41.667h4.143v-5.333h-4.143v-41.667h4.143v-5.333h-4.143v-41.667h4.143v-5.333h-4.143v-41.667h4.143v-5.333h-4.143v-41.667h4.143v-5.333h-4.143V61.064h4.143v-5.333h-4.143V27.166h-6.237v28.566H36.88V27.166h-6.237v28.566h-3.111v5.333h3.111v41.667h-3.111v5.333h3.111v41.667h-3.111v5.333h3.111v41.667h-3.111v5.333h3.111v41.667h-3.111v5.333h3.111v41.667h-3.111v5.333h3.111v41.667h-3.111v5.333h3.111v16.333H0v8h51.052v-8H36.88v-16.333h84.273v16.333h-6.677v8h51.052v-8H127.39zm-90.51-282h84.273v41.667H36.88zm0 276.667v-41.667h17.344v-5.333H36.88v-41.667h17.344v-5.333H36.88v-33.239l-.245-9.873a8.839 8.839 0 0 1 .8-3.888h-.555v-41.667h68.99l-.23-5.28v-.053H36.88v-41.667h84.273v35.38a8.873 8.873 0 0 1 2.271 5.566l1.75 40.25a8.908 8.908 0 0 1-4.941 8.362l-8.967 4.441h9.888v41.667h-16.511v5.333h16.511v41.667h-16.511v2.667c0 .915-.101 1.806-.285 2.667h16.796v41.667z" fill="#000000" opacity="1" data-original="#000000" class=""></path><path d="M85.1 160.398c-11.322 0-20.5 9.178-20.5 20.5a20.38 20.38 0 0 0 2.775 10.267h25.787l11.968-5.926c.302-1.4.47-2.851.47-4.341 0-11.322-9.178-20.5-20.5-20.5z" fill="#000000" opacity="1" data-original="#000000" class=""></path><path d="M56.625 323.44c0 5.729 4.646 10.375 10.378 10.375 5.727 0 10.373-4.646 10.373-10.375v-49.416h4.113v19.374c0 5.729 4.646 10.375 10.377 10.375 5.729 0 10.375-4.646 10.375-10.375v-89.543l16.926-8.382a6.5 6.5 0 0 0 3.609-6.107l-1.75-40.25c-.156-3.587-3.237-6.375-6.776-6.211a6.5 6.5 0 0 0-6.212 6.776l1.566 36.021-15.882 7.864H64.26a6.673 6.673 0 0 0-.725-.043c-.305 0-.607.017-.908.043h-.002a5.98 5.98 0 0 0-2.299.458c-2.808.885-5.522 2.969-8.289 6.401l-.005-.188a6.49 6.49 0 0 0-6.659-6.336 6.5 6.5 0 0 0-6.337 6.66l.607 24.448a6.5 6.5 0 0 0 12.546 2.222 104.074 104.074 0 0 1 4.437-9.7V323.44zM390.161 281.382l-42.811 21.707a4.682 4.682 0 0 0-2.052 6.273 4.68 4.68 0 0 0 6.273 2.052l42.811-21.707c2.289-1.161 3.213-3.983 2.052-6.273s-3.984-3.213-6.273-2.052z" fill="#000000" opacity="1" data-original="#000000" class=""></path><path d="m298.672 255.591 37.392 38.56c3.988 4.112 10.558 4.214 14.672.224 4.112-3.988 4.214-10.558.226-14.671l-46.129-47.57-20.213-45.315 40.273-26.349c6.65 44.001 18.256 93.648 38.512 129.99l3.494-1.947c-19.845-35.604-31.464-84.406-38.259-130.494l.786-.514a6.5 6.5 0 0 0 1.881-8.998 6.48 6.48 0 0 0-4.386-2.848c-7.823-59.736-7.848-112.312-7.781-121.66h75.342V0H0v23.999h315.137c-.065 8.243-.09 48.805 4.901 97.885a827.984 827.984 0 0 0 2.846 24.405 6.367 6.367 0 0 0-.577.337l-49.576 32.437-27.656 12.336a6.54 6.54 0 0 0-.681.257c-5.64 2.515-34.243 1.41-57.51-1.054a6.5 6.5 0 0 0-1.37 12.927c5.51.584 25.235 2.543 41.882 2.543 5.775 0 11.173-.238 15.484-.849l19.485 43.684 2.41 74.667c.185 5.726 4.978 10.22 10.707 10.035 5.724-.185 10.218-4.979 10.033-10.704l-1.955-60.571z" fill="#000000" opacity="1" data-original="#000000" class=""></path><path d="M240.803 144.576c-10.34 4.612-14.983 16.733-10.371 27.073s16.733 14.983 27.073 10.371 14.983-16.733 10.371-27.073c-4.612-10.339-16.733-14.983-27.073-10.371zm23.661 22.428c-.93 4.922-4.295 9.272-9.304 11.195s-10.421.94-14.405-2.097zM399.539 275.648c-2.756-1.052-5.437.191-5.549.245a.997.997 0 0 0-.476 1.327.998.998 0 0 0 1.328.481c.02-.009 2.051-.932 3.999-.18 1.246.482 2.232 1.566 2.931 3.224a1 1 0 0 0 1.844-.778c-.921-2.184-2.293-3.639-4.077-4.319z" fill="#000000" opacity="1" data-original="#000000" class=""></path><path d="M407.524 277.831c-1.247-3.308-3.188-5.554-5.767-6.678-3.925-1.708-7.853-.139-8.019-.069a.997.997 0 0 0-.546 1.301c.207.512.789.753 1.302.551.033-.014 3.343-1.318 6.481.06 2.058.902 3.631 2.767 4.677 5.541a1 1 0 1 0 1.872-.706zM342.905 316.351c-.021-.004-2.202-.425-3.356-2.144-.749-1.114-.933-2.573-.546-4.338a1 1 0 1 0-1.953-.427c-.509 2.317-.227 4.296.839 5.881 1.644 2.447 4.552 2.978 4.675 2.999a1 1 0 1 0 .341-1.971z" fill="#000000" opacity="1" data-original="#000000" class=""></path><path d="M340.444 320.447c-.034-.008-3.461-.823-5.249-3.77-1.169-1.926-1.383-4.362-.635-7.24a1 1 0 0 0-1.936-.504c-.889 3.422-.6 6.376.86 8.781 2.223 3.662 6.338 4.642 6.512 4.682a1 1 0 0 0 .448-1.949zM254.611 248.161a.999.999 0 0 0-1.413.044c-1.625 1.729-2.396 3.573-2.295 5.479.157 2.944 2.384 4.89 2.478 4.972a.998.998 0 0 0 1.411-.107 1.003 1.003 0 0 0-.106-1.411c-.018-.014-1.674-1.493-1.785-3.561-.071-1.341.52-2.688 1.755-4.004a.999.999 0 0 0-.045-1.412z" fill="#000000" opacity="1" data-original="#000000" class=""></path><path d="M249.658 245.501c-2.517 2.482-3.782 5.167-3.761 7.981.031 4.282 3.063 7.232 3.191 7.356a.992.992 0 0 0 .689.277 1.002 1.002 0 0 0 .696-1.721c-.025-.024-2.561-2.519-2.576-5.948-.011-2.246 1.054-4.44 3.165-6.522a1 1 0 1 0-1.404-1.423zM189.7 84.731c0-10.444-7.983-19.057-18.167-20.065V27.731h-4v36.935c-10.184 1.008-18.167 9.621-18.167 20.065 0 11.12 9.047 20.167 20.167 20.167S189.7 95.851 189.7 84.731zm-20.167 15.167c-8.363 0-15.167-6.804-15.167-15.167 0-8.362 6.804-15.166 15.167-15.166S184.7 76.368 184.7 84.731s-6.804 15.167-15.167 15.167zM218.783 27.731v36.935c-10.184 1.008-18.167 9.621-18.167 20.065 0 11.12 9.047 20.167 20.167 20.167s20.167-9.047 20.167-20.167c0-10.444-7.983-19.057-18.167-20.065V27.731zm17.167 57c0 8.363-6.804 15.167-15.167 15.167s-15.167-6.804-15.167-15.167c0-8.362 6.804-15.166 15.167-15.166s15.167 6.803 15.167 15.166zM270.033 27.731v36.935c-10.184 1.008-18.167 9.621-18.167 20.065 0 11.12 9.047 20.167 20.167 20.167S292.2 95.851 292.2 84.731c0-10.444-7.983-19.057-18.167-20.065V27.731zm17.167 57c0 8.363-6.804 15.167-15.167 15.167s-15.167-6.804-15.167-15.167c0-8.362 6.804-15.166 15.167-15.166S287.2 76.368 287.2 84.731zM57.238 359.398h51.052v8H57.238zM171.714 359.398h51.052v8h-51.052zM228.952 359.398h51.052v8h-51.052zM286.19 359.398h51.052v8H286.19zM343.428 359.398h51.052v8h-51.052z" fill="#000000" opacity="1" data-original="#000000" class=""></path></g></svg>