<svg xmlns="http://www.w3.org/2000/svg" version="1.1" xmlns:xlink="http://www.w3.org/1999/xlink" width="25" height="25" x="0" y="0" viewBox="0 0 512 512" style="enable-background:new 0 0 512 512" xml:space="preserve" class=""><g><path d="M0 122.039h103.725v30H0zM0 62.039h142.606v30H0zM26.697 414.915H65.64v30H26.697zM95.64 414.915h193.966v30H95.64z" fill="#000000" opacity="1" data-original="#000000" class=""></path><ellipse cx="393.944" cy="94.192" rx="47.023" ry="47.024" transform="rotate(-26.23 393.415 94.2)" fill="#000000" opacity="1" data-original="#000000" class=""></ellipse><path d="m73.112 252.913-31.415 31.415 64.943 64.943c17.574 17.574 46.066 17.574 63.64 0l27.021-27.022-28.864-28.865a71.114 71.114 0 0 1-2.488-2.618L138.46 318.26zM381.502 190.678 266.043 75.219c-17.574-17.574-46.066-17.574-63.64 0l-45.645 45.646 31.415 31.415 46.049-46.051 31.821 31.82-76.393 76.392c-15.916 15.915-15.916 41.813 0 57.729l192.66 192.661 31.416-31.416-137.482-137.48z" fill="#000000" opacity="1" data-original="#000000" class=""></path><path d="m480.585 197.661-46.05 46.05-31.82-31.82-31.415 31.415 31.415 31.415c17.574 17.574 46.066 17.573 63.64 0L512 229.076z" fill="#000000" opacity="1" data-original="#000000" class=""></path></g></svg>