<svg xmlns="http://www.w3.org/2000/svg" version="1.1" xmlns:xlink="http://www.w3.org/1999/xlink" width="25" height="25" x="0" y="0" viewBox="0 0 63.267 63.267" style="enable-background:new 0 0 512 512" xml:space="preserve" class=""><g><path d="M6.348 32.764c4.241 0 4.278-6.568.047-6.568-4.24 0-4.278 6.568-.047 6.568zM26.827 47.48c-1.201 0-2.158 1.286-2.279 2.989l-.427 4.642a.695.695 0 0 0 .18.535c.132.146.32.229.517.229h4.018a.701.701 0 0 0 .697-.764l-.425-4.642c-.122-1.703-1.081-2.989-2.281-2.989zm-1.692 2.989c.115-1.337.842-2.405 1.691-2.405.85 0 1.577 1.068 1.691 2.405h-3.382zM48.598 13.905c4.158-.777 2.914-7.227-1.254-6.447-4.157.777-2.915 7.225 1.254 6.447zM52.296 31.215c.506-1.333 1.565-4.149 1.672-5.333.122-1.359-.098-4.145-.098-4.145 1.271.885 2.63 1.642 4.109 2.201 2.274.858 3.784-2.6 1.509-3.46-2.729-1.03-5.036-2.783-7.028-4.897-.396-.419-1.583-1.152-3.229-.831-1.431.277-2.826 1.674-2.688 3.157.094.991.571 2.931.741 3.911.189 1.092.303 3.716.219 4.061-1.453.358-2.906.73-4.324 1.204-1.166.39-1.5 1.686-1.571 2.019-.438 2.028-.649 4.082-.85 6.144-.217 2.236 3.249 2.519 3.464.293.175-1.801.369-3.592.706-5.369a74.74 74.74 0 0 1 4.146-1.092 36.013 36.013 0 0 1-.628 1.629c-.177.427-.371 1.14.233 1.97a41.486 41.486 0 0 0 4.476 5.161c.734.722 2.065.428 2.649-.316.688-.874.417-1.929-.317-2.651a32.973 32.973 0 0 1-3.191-3.656z" style="" fill="#010002" data-original="#010002"></path><path d="M56.529 26.136a.515.515 0 1 0-.625.816c.1.075 9.809 7.718 5.001 21.504a.512.512 0 1 0 .968.337c5.051-14.48-5.239-22.577-5.344-22.657zM5.337 24.923a.257.257 0 0 0 .248-.321l-.768-2.966a.258.258 0 0 0-.498.128l.769 2.966c.03.117.134.193.249.193zM3.257 26.056a.259.259 0 0 0 .364-.007.258.258 0 0 0-.007-.364l-1.895-1.818a.257.257 0 1 0-.356.371l1.894 1.818zM2.027 27.892c.101 0 .197-.06.237-.16a.255.255 0 0 0-.141-.334l-1.77-.721a.256.256 0 1 0-.193.476l1.77.721a.265.265 0 0 0 .097.018zM50.206 39.745l-14.25 2.18c.227-1.688.454-3.373.679-5.059.168-1.233-1.765-1.281-1.929-.061-.242 1.808-.486 3.615-.731 5.422l-14.679 2.245a5261.92 5261.92 0 0 0-2.046-5.262c-.401-1.036-1.787-.403-1.767.561a1.826 1.826 0 0 0-.251-.16 127.548 127.548 0 0 1-6.129-3.296c-.274-1.462-1.766-2.597-3.222-2.605-1.896-.015-3.155 1.478-3.309 3.26-.24 2.802.046 5.597.627 8.34.136.646.412 1.135.763 1.508l-1.981.303a2 2 0 1 0 .605 3.953l10.843-1.658a73.994 73.994 0 0 1 1.196 3.806c.622 2.149 3.976 1.234 3.352-.922a80.938 80.938 0 0 0-1.057-3.418l33.892-5.183a2 2 0 1 0-.606-3.954zm-36.108 4.974a75.547 75.547 0 0 0-4.473-.39L9.093 40.3c1.446.799 2.907 1.571 4.384 2.314 1.195.601 2.297-.231 2.569-1.214l1.31 3.368-2.305.353a1.818 1.818 0 0 0-.953-.402z" style="" fill="#010002" data-original="#010002"></path></g></svg>