<svg xmlns="http://www.w3.org/2000/svg" version="1.1" xmlns:xlink="http://www.w3.org/1999/xlink" width="25" height="25" x="0" y="0" viewBox="0 0 64 64" style="enable-background:new 0 0 512 512" xml:space="preserve" class=""><g><g fill="#343433"><path d="M45.104 16.789c-3.388-1.087-5.354-4.973-4.256-8.413 1.161-3.639 4.888-5.55 8.55-4.385 3.578 1.138 5.466 4.855 4.311 8.483-1.139 3.58-4.947 5.489-8.605 4.315zM36.782 32.989a2.57 2.57 0 0 0 .294-.168 2.88 2.88 0 0 1 .116-.562c.353-1.114 1.274-1.71 2.485-1.797.266-.02.535-.037.803-.061.921-.071 1.848-.176 2.71-.45a9.457 9.457 0 0 0 4.361-2.908c.264-.311.534-.639.79-.984.619-.833.968-1.822 1.165-2.834.218-1.121-.344-2.294.06-3.386.317-.858 1.164-1.544 2.011-1.834 1.718-.587 3.672.242 4.777 1.599 2.336 2.869 3.996 6.22 5.29 9.669 1.046 2.787 1.78 5.697 2.006 8.67.218 2.872.215 6.119-1.176 8.721-1.022 1.912-2.676 2.263-4.707 2.482-.11.275-.138.612-.143.91-.018 1.059-.018 2.12-.022 3.18-.004 1.349-.012 2.7-.063 4.049-.045 1.205-.262 2.785-.941 3.961-.446.773-1.089 1.371-2.012 1.578-5.016 1.12-4.491-8.184-4.521-10.815-.01-.696-.02-1.393-.037-2.087a3.136 3.136 0 0 0-.097-.787c-1.263-.093-2.18-.245-2.825-.438a146.14 146.14 0 0 1-1.281-.183 1.093 1.093 0 0 1-.811-1.576c1.422-2.858 2.395-6.126 3.008-8.874a45.57 45.57 0 0 0 .742-4.146c-.132-.191-.16-.408-.341-.268-1.464 1.13-3.25 1.633-5.065 1.83-1.58.171-3.778.549-5.198-.325a2.27 2.27 0 0 1-.686-.657c-.223-.028-.394.152-.566.454-.353.619-.13 1.355.211 1.927.306.511.98.909.98 1.552v19.831c0 .544-.396 1.03-.939 1.081a1.039 1.039 0 0 1-1.142-1.034s-.024-9.776-.002-14.312c.012-2.495-.049-4.957-.866-7.373-.563-1.664.149-2.919 1.632-3.635zM23.152 8.179c-1.161-3.639-4.888-5.55-8.55-4.385-.27.086-.529.188-.78.303-.008-.028-.013-.056-.022-.083-.72-2.257-3.032-3.443-5.304-2.72-2.218.705-3.39 3.011-2.674 5.261.586 1.838 2.305 2.965 4.166 2.886a7.007 7.007 0 0 0 .302 2.836c1.14 3.58 4.947 5.489 8.605 4.315 3.389-1.088 5.355-4.974 4.257-8.413zM27.218 32.792a2.57 2.57 0 0 1-.294-.168 2.88 2.88 0 0 0-.116-.562c-.353-1.114-1.274-1.71-2.485-1.797-.266-.02-.535-.037-.803-.061-.921-.071-1.848-.176-2.71-.45a9.457 9.457 0 0 1-4.361-2.908 19.287 19.287 0 0 1-.79-.984c-.619-.833-.968-1.822-1.165-2.834-.218-1.121.344-2.294-.06-3.386-.317-.858-1.164-1.544-2.011-1.834-1.718-.587-3.672.242-4.777 1.599-2.336 2.869-3.996 6.22-5.29 9.669C1.31 31.863.576 34.773.35 37.746c-.218 2.872-.215 6.119 1.176 8.721 1.022 1.912 2.676 2.263 4.707 2.482.11.275.138.612.143.91.018 1.059.018 2.12.022 3.18.004 1.349.012 2.7.063 4.049.045 1.205.262 2.785.941 3.961.446.773 1.089 1.371 2.012 1.578 5.016 1.12 4.491-8.184 4.521-10.815.01-.696.02-1.393.037-2.087.006-.254.024-.538.097-.787 1.263-.093 2.18-.245 2.825-.438.436-.061.872-.122 1.281-.183a1.093 1.093 0 0 0 .811-1.576c-1.422-2.858-2.395-6.126-3.008-8.874a45.57 45.57 0 0 1-.742-4.146c.132-.191.16-.408.341-.268 1.464 1.13 3.25 1.633 5.065 1.83 1.58.171 3.778.549 5.198-.325.282-.174.511-.4.686-.657.223-.028.394.152.566.454.353.619.13 1.355-.211 1.927-.306.511-.98.909-.98 1.552v19.831c0 .544.396 1.03.939 1.081a1.039 1.039 0 0 0 1.142-1.034s.024-9.776.002-14.312c-.012-2.495.049-4.957.866-7.373.563-1.664-.149-2.919-1.632-3.635z" fill="#343433" opacity="1" data-original="#343433"></path></g></g></svg>